<svg xmlns="http://www.w3.org/2000/svg" xmlns:xlink="http://www.w3.org/1999/xlink" width="23" height="22" viewBox="0 0 23 22"><defs><path id="dxfta" d="M898 2003.897c0-.494.383-.897.85-.897h3.078c.382 0 .723.269.822.657l3.474 13.242h9.471l3.148-7.622h-10.492c-.468 0-.851-.404-.851-.897s.383-.896.85-.896h11.797c.284 0 .553.15.71.403a.95.95 0 0 1 .07.852l-3.885 9.416c-.142.329-.44.538-.78.538h-10.676a.859.859 0 0 1-.823-.658l-3.474-13.242h-2.438c-.468 0-.851-.403-.851-.896zm4.85 19.07c0-1.12.864-2.032 1.927-2.032 1.064 0 1.929.911 1.929 2.032s-.865 2.033-1.929 2.033c-1.063 0-1.928-.912-1.928-2.033zm12.065.135c-.07-1.106.724-2.093 1.787-2.167 1.063-.075 1.985.777 2.056 1.883.028.553-.128 1.076-.468 1.48-.34.418-.808.657-1.319.702h-.141c-1.007 0-1.844-.837-1.915-1.898z"/><clipPath id="dxftb"><use fill="#fff" xlink:href="#dxfta"/></clipPath></defs><g><g transform="translate(-898 -2003)"><use fill="#fff" xlink:href="#dxfta"/><use fill="#fff" fill-opacity="0" stroke="#fff" stroke-linecap="round" stroke-linejoin="round" stroke-miterlimit="50" stroke-width="4" clip-path="url(&quot;#dxftb&quot;)" xlink:href="#dxfta"/></g></g></svg>